<?xml version="1.0" encoding="UTF-8"?>
<svg xmlns="http://www.w3.org/2000/svg" xmlns:xlink="http://www.w3.org/1999/xlink" width="1417.32pt" height="850.394pt" viewBox="0 0 1417.32 850.394" version="1.2">
<g id="surface1">
<path style=" stroke:none;fill-rule:nonzero;fill:rgb(100%,100%,100%);fill-opacity:1;" d="M 404.824219 175.277344 L 412.738281 175.277344 L 412.738281 221.445312 L 404.824219 221.445312 Z M 404.824219 175.277344 "/>
<path style=" stroke:none;fill-rule:nonzero;fill:rgb(100%,100%,100%);fill-opacity:1;" d="M 441.183594 221.445312 L 441.183594 202.121094 C 441.183594 196.886719 439.09375 194.273438 434.917969 194.273438 C 430.34375 194.273438 428.058594 196.84375 428.058594 201.988281 L 428.058594 221.445312 L 420.34375 221.445312 L 420.34375 187.742188 L 428.058594 187.742188 L 428.058594 190.910156 C 430.257812 188.269531 433.226562 186.953125 436.960938 186.953125 C 440.480469 186.953125 443.347656 188.050781 445.570312 190.25 C 447.789062 192.449219 448.902344 195.941406 448.902344 200.734375 L 448.902344 221.445312 Z M 441.183594 221.445312 "/>
<path style=" stroke:none;fill-rule:nonzero;fill:rgb(100%,100%,100%);fill-opacity:1;" d="M 465.558594 222.234375 C 460.328125 222.234375 457.710938 219.355469 457.710938 213.597656 L 457.710938 194.46875 L 452.699219 194.46875 L 452.699219 187.742188 L 457.710938 187.742188 L 457.710938 177.519531 L 465.429688 173.828125 L 465.429688 187.742188 L 473.210938 187.742188 L 473.210938 194.46875 L 465.429688 194.46875 L 465.429688 212.078125 C 465.429688 214.234375 466.375 215.3125 468.265625 215.3125 C 469.980469 215.3125 471.738281 214.804688 473.539062 213.792969 L 472.617188 220.71875 C 470.683594 221.730469 468.328125 222.234375 465.558594 222.234375 "/>
<path style=" stroke:none;fill-rule:nonzero;fill:rgb(100%,100%,100%);fill-opacity:1;" d="M 484.328125 201.132812 L 499.234375 201.132812 C 499.058594 198.714844 498.3125 196.875 496.992188 195.625 C 495.671875 194.371094 494.066406 193.742188 492.179688 193.742188 C 489.980469 193.742188 488.164062 194.347656 486.734375 195.558594 C 485.308594 196.769531 484.503906 198.625 484.328125 201.132812 M 492.179688 222.234375 C 487.386719 222.234375 483.59375 220.664062 480.800781 217.519531 C 478.007812 214.378906 476.613281 210.058594 476.613281 204.558594 C 476.613281 199.109375 478.019531 194.808594 480.835938 191.667969 C 483.644531 188.523438 487.429688 186.949219 492.179688 186.949219 C 496.484375 186.949219 500.015625 188.292969 502.761719 190.972656 C 505.511719 193.65625 506.882812 197.59375 506.882812 202.78125 C 506.882812 204.582031 506.796875 206.167969 506.621094 207.527344 L 484.261719 207.527344 C 484.394531 209.902344 485.21875 211.816406 486.734375 213.265625 C 488.253906 214.71875 490.066406 215.441406 492.179688 215.441406 C 495.167969 215.441406 497.542969 214.277344 499.300781 211.945312 L 504.179688 216.960938 C 501.234375 220.476562 497.234375 222.234375 492.179688 222.234375 "/>
<path style=" stroke:none;fill-rule:nonzero;fill:rgb(100%,100%,100%);fill-opacity:1;" d="M 512.207031 221.445312 L 512.207031 187.742188 L 519.921875 187.742188 L 519.921875 191.238281 C 521.285156 188.378906 523.59375 186.953125 526.847656 186.953125 C 529.222656 186.953125 531.3125 187.71875 533.113281 189.257812 L 531.992188 196.316406 C 530.320312 195.128906 528.410156 194.535156 526.253906 194.535156 C 524.496094 194.535156 523 195.152344 521.769531 196.382812 C 520.539062 197.613281 519.921875 199.679688 519.921875 202.582031 L 519.921875 221.445312 Z M 512.207031 221.445312 "/>
<path style=" stroke:none;fill-rule:nonzero;fill:rgb(100%,100%,100%);fill-opacity:1;" d="M 557.78125 221.445312 L 557.78125 202.121094 C 557.78125 196.886719 555.691406 194.273438 551.515625 194.273438 C 546.941406 194.273438 544.65625 196.84375 544.65625 201.988281 L 544.65625 221.445312 L 536.941406 221.445312 L 536.941406 187.742188 L 544.65625 187.742188 L 544.65625 190.910156 C 546.855469 188.269531 549.820312 186.953125 553.558594 186.953125 C 557.078125 186.953125 559.945312 188.050781 562.167969 190.25 C 564.386719 192.449219 565.496094 195.941406 565.496094 200.734375 L 565.496094 221.445312 Z M 557.78125 221.445312 "/>
<path style=" stroke:none;fill-rule:nonzero;fill:rgb(100%,100%,100%);fill-opacity:1;" d="M 584.113281 215.441406 C 587.058594 215.441406 589.566406 214.367188 591.632812 212.210938 L 591.632812 207.859375 C 589.699219 206.933594 587.457031 206.472656 584.90625 206.472656 C 582.839844 206.472656 581.167969 206.847656 579.894531 207.59375 C 578.617188 208.34375 577.980469 209.484375 577.980469 211.023438 C 577.980469 212.386719 578.511719 213.464844 579.5625 214.253906 C 580.621094 215.046875 582.136719 215.441406 584.113281 215.441406 M 591.632812 221.445312 L 591.632812 218.742188 C 589.390625 221.070312 586.398438 222.234375 582.664062 222.234375 C 579.058594 222.234375 576.125 221.257812 573.859375 219.300781 C 571.59375 217.34375 570.460938 214.585938 570.460938 211.023438 C 570.460938 207.375 571.75 204.605469 574.320312 202.714844 C 576.894531 200.824219 580.003906 199.878906 583.652344 199.878906 C 586.863281 199.878906 589.523438 200.472656 591.632812 201.660156 L 591.632812 199.878906 C 591.632812 197.722656 591.09375 196.164062 590.019531 195.195312 C 588.9375 194.230469 587.28125 193.746094 585.039062 193.746094 C 581.386719 193.746094 578.046875 194.800781 575.015625 196.910156 L 572.640625 190.644531 C 576.289062 188.183594 580.683594 186.953125 585.828125 186.953125 C 587.589844 186.953125 589.136719 187.09375 590.480469 187.378906 C 591.820312 187.667969 593.207031 188.226562 594.632812 189.0625 C 596.0625 189.898438 597.171875 191.214844 597.964844 193.019531 C 598.757812 194.824219 599.152344 197.0625 599.152344 199.746094 L 599.152344 221.445312 Z M 591.632812 221.445312 "/>
<path style=" stroke:none;fill-rule:nonzero;fill:rgb(100%,100%,100%);fill-opacity:1;" d="M 615.738281 222.234375 C 610.507812 222.234375 607.890625 219.355469 607.890625 213.597656 L 607.890625 194.46875 L 602.878906 194.46875 L 602.878906 187.742188 L 607.890625 187.742188 L 607.890625 177.519531 L 615.605469 173.828125 L 615.605469 187.742188 L 623.390625 187.742188 L 623.390625 194.46875 L 615.605469 194.46875 L 615.605469 212.078125 C 615.605469 214.234375 616.550781 215.3125 618.441406 215.3125 C 620.160156 215.3125 621.917969 214.804688 623.71875 213.792969 L 622.796875 220.71875 C 620.859375 221.730469 618.507812 222.234375 615.738281 222.234375 "/>
<path style=" stroke:none;fill-rule:nonzero;fill:rgb(100%,100%,100%);fill-opacity:1;" d="M 628.359375 187.742188 L 636.078125 187.742188 L 636.078125 221.445312 L 628.359375 221.445312 Z M 635.484375 181.773438 C 634.605469 182.675781 633.527344 183.125 632.253906 183.125 C 630.976562 183.125 629.890625 182.675781 628.988281 181.773438 C 628.085938 180.875 627.636719 179.785156 627.636719 178.511719 C 627.636719 177.234375 628.085938 176.15625 628.988281 175.277344 C 629.890625 174.398438 630.976562 173.957031 632.253906 173.957031 C 633.527344 173.957031 634.605469 174.398438 635.484375 175.277344 C 636.363281 176.15625 636.804688 177.234375 636.804688 178.511719 C 636.804688 179.785156 636.363281 180.875 635.484375 181.773438 "/>
<path style=" stroke:none;fill-rule:nonzero;fill:rgb(100%,100%,100%);fill-opacity:1;" d="M 657.070312 214.847656 C 659.488281 214.847656 661.390625 213.949219 662.777344 212.144531 C 664.160156 210.34375 664.855469 207.835938 664.855469 204.625 C 664.855469 201.417969 664.160156 198.886719 662.777344 197.042969 C 661.390625 195.195312 659.488281 194.273438 657.070312 194.273438 C 654.742188 194.273438 652.871094 195.207031 651.464844 197.074219 C 650.058594 198.945312 649.355469 201.460938 649.355469 204.625 C 649.355469 207.792969 650.046875 210.289062 651.433594 212.113281 C 652.816406 213.9375 654.699219 214.847656 657.070312 214.847656 M 657.070312 222.234375 C 652.324219 222.234375 648.5625 220.675781 645.792969 217.554688 C 643.023438 214.433594 641.636719 210.125 641.636719 204.625 C 641.636719 199.132812 643.023438 194.808594 645.792969 191.667969 C 648.5625 188.523438 652.324219 186.949219 657.070312 186.949219 C 661.820312 186.949219 665.589844 188.523438 668.382812 191.667969 C 671.171875 194.808594 672.570312 199.132812 672.570312 204.625 C 672.570312 210.125 671.1875 214.433594 668.414062 217.554688 C 665.644531 220.675781 661.863281 222.234375 657.070312 222.234375 "/>
<path style=" stroke:none;fill-rule:nonzero;fill:rgb(100%,100%,100%);fill-opacity:1;" d="M 699.027344 221.445312 L 699.027344 202.121094 C 699.027344 196.886719 696.941406 194.273438 692.761719 194.273438 C 688.191406 194.273438 685.90625 196.84375 685.90625 201.988281 L 685.90625 221.445312 L 678.1875 221.445312 L 678.1875 187.742188 L 685.90625 187.742188 L 685.90625 190.910156 C 688.101562 188.269531 691.070312 186.953125 694.808594 186.953125 C 698.324219 186.953125 701.195312 188.050781 703.414062 190.25 C 705.632812 192.449219 706.746094 195.941406 706.746094 200.734375 L 706.746094 221.445312 Z M 699.027344 221.445312 "/>
<path style=" stroke:none;fill-rule:nonzero;fill:rgb(100%,100%,100%);fill-opacity:1;" d="M 725.363281 215.441406 C 728.308594 215.441406 730.816406 214.367188 732.882812 212.210938 L 732.882812 207.859375 C 730.949219 206.933594 728.707031 206.472656 726.15625 206.472656 C 724.089844 206.472656 722.417969 206.847656 721.144531 207.59375 C 719.867188 208.34375 719.230469 209.484375 719.230469 211.023438 C 719.230469 212.386719 719.757812 213.464844 720.8125 214.253906 C 721.867188 215.046875 723.386719 215.441406 725.363281 215.441406 M 732.882812 221.445312 L 732.882812 218.742188 C 730.640625 221.070312 727.648438 222.234375 723.914062 222.234375 C 720.304688 222.234375 717.371094 221.257812 715.109375 219.300781 C 712.84375 217.34375 711.710938 214.585938 711.710938 211.023438 C 711.710938 207.375 712.996094 204.605469 715.570312 202.714844 C 718.140625 200.824219 721.253906 199.878906 724.902344 199.878906 C 728.109375 199.878906 730.773438 200.472656 732.882812 201.660156 L 732.882812 199.878906 C 732.882812 197.722656 732.34375 196.164062 731.265625 195.195312 C 730.1875 194.230469 728.53125 193.746094 726.289062 193.746094 C 722.636719 193.746094 719.296875 194.800781 716.261719 196.910156 L 713.890625 190.644531 C 717.539062 188.183594 721.933594 186.953125 727.078125 186.953125 C 728.835938 186.953125 730.386719 187.09375 731.726562 187.378906 C 733.070312 187.667969 734.453125 188.226562 735.882812 189.0625 C 737.3125 189.898438 738.421875 191.214844 739.214844 193.019531 C 740.003906 194.824219 740.402344 197.0625 740.402344 199.746094 L 740.402344 221.445312 Z M 732.882812 221.445312 "/>
<path style=" stroke:none;fill-rule:nonzero;fill:rgb(100%,100%,100%);fill-opacity:1;" d="M 747.371094 221.445312 L 747.371094 177.453125 L 755.089844 173.828125 L 755.089844 221.445312 Z M 747.371094 221.445312 "/>
<path style=" stroke:none;fill-rule:nonzero;fill:rgb(100%,100%,100%);fill-opacity:1;" d="M 404.496094 287.398438 L 404.496094 241.230469 L 412.410156 241.230469 L 412.410156 279.8125 L 434.832031 279.8125 L 434.832031 287.398438 Z M 404.496094 287.398438 "/>
<path style=" stroke:none;fill-rule:nonzero;fill:rgb(100%,100%,100%);fill-opacity:1;" d="M 451.769531 281.394531 C 454.714844 281.394531 457.222656 280.320312 459.289062 278.164062 L 459.289062 273.8125 C 457.355469 272.886719 455.113281 272.425781 452.5625 272.425781 C 450.496094 272.425781 448.824219 272.800781 447.546875 273.546875 C 446.273438 274.296875 445.636719 275.4375 445.636719 276.976562 C 445.636719 278.339844 446.164062 279.417969 447.21875 280.207031 C 448.273438 281 449.792969 281.394531 451.769531 281.394531 M 459.289062 287.398438 L 459.289062 284.695312 C 457.046875 287.023438 454.054688 288.1875 450.320312 288.1875 C 446.710938 288.1875 443.777344 287.210938 441.515625 285.253906 C 439.25 283.296875 438.117188 280.539062 438.117188 276.976562 C 438.117188 273.328125 439.402344 270.558594 441.976562 268.667969 C 444.546875 266.777344 447.660156 265.832031 451.308594 265.832031 C 454.515625 265.832031 457.179688 266.425781 459.289062 267.613281 L 459.289062 265.832031 C 459.289062 263.675781 458.75 262.117188 457.671875 261.148438 C 456.59375 260.183594 454.933594 259.699219 452.691406 259.699219 C 449.042969 259.699219 445.703125 260.753906 442.667969 262.863281 L 440.296875 256.597656 C 443.941406 254.136719 448.339844 252.902344 453.484375 252.902344 C 455.242188 252.902344 456.792969 253.046875 458.132812 253.332031 C 459.476562 253.621094 460.859375 254.179688 462.289062 255.015625 C 463.71875 255.851562 464.828125 257.167969 465.621094 258.972656 C 466.410156 260.777344 466.808594 263.015625 466.808594 265.699219 L 466.808594 287.398438 Z M 459.289062 287.398438 "/>
<path style=" stroke:none;fill-rule:nonzero;fill:rgb(100%,100%,100%);fill-opacity:1;" d="M 487.871094 280.800781 C 490.246094 280.800781 492.058594 279.890625 493.3125 278.066406 C 494.566406 276.242188 495.191406 273.722656 495.191406 270.511719 C 495.191406 267.171875 494.554688 264.621094 493.28125 262.863281 C 492.003906 261.105469 490.203125 260.226562 487.871094 260.226562 C 484.96875 260.226562 482.792969 261.324219 481.34375 263.523438 L 481.34375 277.570312 C 482.75 279.726562 484.925781 280.800781 487.871094 280.800781 M 488.796875 288.1875 C 485.628906 288.1875 483.144531 287.066406 481.34375 284.824219 L 481.34375 287.398438 L 473.625 287.398438 L 473.625 243.273438 L 481.34375 239.78125 L 481.34375 256.203125 C 483.230469 254.003906 485.761719 252.902344 488.925781 252.902344 C 493.101562 252.902344 496.480469 254.488281 499.050781 257.652344 C 501.625 260.820312 502.910156 265.105469 502.910156 270.511719 C 502.910156 276.140625 501.65625 280.496094 499.148438 283.570312 C 496.644531 286.652344 493.191406 288.1875 488.796875 288.1875 "/>
<path style=" stroke:none;fill-rule:nonzero;fill:rgb(100%,100%,100%);fill-opacity:1;" d="M 522.429688 280.800781 C 524.847656 280.800781 526.75 279.902344 528.136719 278.097656 C 529.519531 276.296875 530.210938 273.789062 530.210938 270.578125 C 530.210938 267.371094 529.519531 264.839844 528.136719 262.996094 C 526.75 261.148438 524.847656 260.226562 522.429688 260.226562 C 520.097656 260.226562 518.230469 261.160156 516.824219 263.027344 C 515.417969 264.898438 514.714844 267.414062 514.714844 270.578125 C 514.714844 273.746094 515.40625 276.242188 516.789062 278.066406 C 518.175781 279.890625 520.054688 280.800781 522.429688 280.800781 M 522.429688 288.1875 C 517.683594 288.1875 513.921875 286.628906 511.152344 283.507812 C 508.382812 280.386719 506.996094 276.078125 506.996094 270.578125 C 506.996094 265.085938 508.382812 260.761719 511.152344 257.621094 C 513.921875 254.476562 517.683594 252.902344 522.429688 252.902344 C 527.179688 252.902344 530.949219 254.476562 533.742188 257.621094 C 536.53125 260.761719 537.929688 265.085938 537.929688 270.578125 C 537.929688 276.078125 536.542969 280.386719 533.773438 283.507812 C 531.003906 286.628906 527.222656 288.1875 522.429688 288.1875 "/>
<path style=" stroke:none;fill-rule:nonzero;fill:rgb(100%,100%,100%);fill-opacity:1;" d="M 564.003906 287.398438 L 564.003906 284.164062 C 561.894531 286.847656 558.949219 288.1875 555.167969 288.1875 C 551.648438 288.1875 548.769531 287.078125 546.527344 284.859375 C 544.285156 282.640625 543.164062 279.132812 543.164062 274.339844 L 543.164062 253.695312 L 550.878906 253.695312 L 550.878906 272.953125 C 550.878906 278.1875 552.992188 280.800781 557.210938 280.800781 C 561.738281 280.800781 564.003906 278.230469 564.003906 273.085938 L 564.003906 253.695312 L 571.722656 253.695312 L 571.722656 287.398438 Z M 564.003906 287.398438 "/>
<path style=" stroke:none;fill-rule:nonzero;fill:rgb(100%,100%,100%);fill-opacity:1;" d="M 578.898438 287.398438 L 578.898438 253.695312 L 586.613281 253.695312 L 586.613281 257.191406 C 587.976562 254.332031 590.285156 252.902344 593.539062 252.902344 C 595.914062 252.902344 598 253.671875 599.804688 255.210938 L 598.683594 262.269531 C 597.011719 261.082031 595.097656 260.488281 592.945312 260.488281 C 591.1875 260.488281 589.691406 261.105469 588.460938 262.335938 C 587.230469 263.566406 586.613281 265.632812 586.613281 268.535156 L 586.613281 287.398438 Z M 578.898438 287.398438 "/>
<path style=" stroke:none;fill-rule:nonzero;fill:rgb(100%,100%,100%);fill-opacity:1;" d="M 423.09375 346.558594 C 425.203125 346.558594 427.074219 346.054688 428.699219 345.039062 C 430.324219 344.03125 431.589844 342.699219 432.492188 341.050781 C 433.394531 339.402344 434.0625 337.664062 434.503906 335.839844 C 434.941406 334.015625 435.164062 332.15625 435.164062 330.265625 C 435.164062 328.246094 434.941406 326.320312 434.503906 324.496094 C 434.0625 322.671875 433.394531 320.945312 432.492188 319.320312 C 431.589844 317.691406 430.335938 316.394531 428.734375 315.425781 C 427.128906 314.460938 425.246094 313.976562 423.09375 313.976562 C 420.28125 313.976562 417.925781 314.867188 416.035156 316.648438 C 414.144531 318.429688 412.839844 320.484375 412.113281 322.816406 C 411.386719 325.144531 411.023438 327.628906 411.023438 330.265625 C 411.023438 332.246094 411.246094 334.160156 411.683594 336.003906 C 412.121094 337.851562 412.792969 339.589844 413.695312 341.214844 C 414.597656 342.84375 415.851562 344.140625 417.453125 345.105469 C 419.058594 346.074219 420.9375 346.558594 423.09375 346.558594 M 423.09375 354.140625 C 420.234375 354.140625 417.640625 353.679688 415.3125 352.757812 C 412.980469 351.832031 411.058594 350.589844 409.539062 349.03125 C 408.023438 347.472656 406.75 345.65625 405.714844 343.589844 C 404.683594 341.523438 403.945312 339.378906 403.503906 337.160156 C 403.066406 334.941406 402.847656 332.640625 402.847656 330.265625 C 402.847656 327.894531 403.066406 325.59375 403.503906 323.375 C 403.945312 321.15625 404.683594 319.011719 405.714844 316.945312 C 406.75 314.878906 408.023438 313.0625 409.539062 311.503906 C 411.058594 309.941406 412.980469 308.699219 415.3125 307.777344 C 417.640625 306.855469 420.234375 306.390625 423.09375 306.390625 C 426.65625 306.390625 429.789062 307.085938 432.492188 308.46875 C 435.195312 309.855469 437.308594 311.722656 438.824219 314.074219 C 440.339844 316.429688 441.472656 318.96875 442.222656 321.691406 C 442.96875 324.421875 443.34375 327.277344 443.34375 330.265625 C 443.34375 333.257812 442.96875 336.113281 442.222656 338.839844 C 441.472656 341.566406 440.339844 344.105469 438.824219 346.457031 C 437.308594 348.8125 435.195312 350.679688 432.492188 352.066406 C 429.789062 353.449219 426.65625 354.140625 423.09375 354.140625 "/>
<path style=" stroke:none;fill-rule:nonzero;fill:rgb(100%,100%,100%);fill-opacity:1;" d="M 449.96875 353.351562 L 449.96875 319.648438 L 457.6875 319.648438 L 457.6875 323.144531 C 459.046875 320.285156 461.355469 318.855469 464.609375 318.855469 C 466.984375 318.855469 469.074219 319.625 470.875 321.164062 L 469.753906 328.222656 C 468.082031 327.035156 466.171875 326.441406 464.015625 326.441406 C 462.257812 326.441406 460.761719 327.058594 459.53125 328.289062 C 458.300781 329.519531 457.6875 331.585938 457.6875 334.488281 L 457.6875 353.351562 Z M 449.96875 353.351562 "/>
<path style=" stroke:none;fill-rule:nonzero;fill:rgb(100%,100%,100%);fill-opacity:1;" d="M 488.070312 346.753906 C 490.839844 346.753906 492.949219 345.65625 494.402344 343.457031 L 494.402344 329.476562 C 492.863281 327.277344 490.753906 326.179688 488.070312 326.179688 C 485.652344 326.179688 483.792969 327.058594 482.496094 328.816406 C 481.199219 330.574219 480.550781 333.125 480.550781 336.464844 C 480.550781 339.632812 481.210938 342.136719 482.53125 343.984375 C 483.847656 345.832031 485.695312 346.753906 488.070312 346.753906 M 486.222656 366.539062 L 482.136719 360.339844 C 486.75 360.035156 489.949219 359.320312 491.730469 358.199219 C 493.511719 357.078125 494.402344 355.351562 494.402344 353.019531 L 494.402344 351.109375 C 492.554688 353.128906 490.003906 354.140625 486.75 354.140625 C 482.617188 354.140625 479.265625 352.613281 476.691406 349.558594 C 474.121094 346.503906 472.835938 342.136719 472.835938 336.464844 C 472.835938 331.015625 474.121094 326.714844 476.691406 323.574219 C 479.265625 320.429688 482.640625 318.855469 486.816406 318.855469 C 489.984375 318.855469 492.511719 319.804688 494.402344 321.691406 L 494.402344 319.648438 L 502.117188 319.648438 L 502.117188 349.988281 C 502.117188 355.570312 500.917969 359.617188 498.523438 362.121094 C 496.128906 364.628906 492.027344 366.101562 486.222656 366.539062 "/>
<path style=" stroke:none;fill-rule:nonzero;fill:rgb(100%,100%,100%);fill-opacity:1;" d="M 521.003906 347.347656 C 523.949219 347.347656 526.457031 346.273438 528.523438 344.117188 L 528.523438 339.765625 C 526.589844 338.839844 524.347656 338.378906 521.796875 338.378906 C 519.730469 338.378906 518.058594 338.753906 516.785156 339.5 C 515.507812 340.25 514.871094 341.390625 514.871094 342.929688 C 514.871094 344.292969 515.402344 345.371094 516.453125 346.160156 C 517.511719 346.953125 519.027344 347.347656 521.003906 347.347656 M 528.523438 353.351562 L 528.523438 350.648438 C 526.28125 352.976562 523.289062 354.140625 519.554688 354.140625 C 515.949219 354.140625 513.015625 353.164062 510.75 351.207031 C 508.484375 349.25 507.351562 346.492188 507.351562 342.929688 C 507.351562 339.28125 508.640625 336.511719 511.210938 334.621094 C 513.785156 332.730469 516.894531 331.785156 520.542969 331.785156 C 523.753906 331.785156 526.414062 332.378906 528.523438 333.566406 L 528.523438 331.785156 C 528.523438 329.628906 527.984375 328.070312 526.910156 327.101562 C 525.832031 326.136719 524.171875 325.652344 521.929688 325.652344 C 518.277344 325.652344 514.9375 326.707031 511.90625 328.816406 L 509.53125 322.550781 C 513.179688 320.089844 517.574219 318.855469 522.71875 318.855469 C 524.480469 318.855469 526.027344 319 527.371094 319.285156 C 528.710938 319.574219 530.097656 320.132812 531.523438 320.96875 C 532.953125 321.804688 534.0625 323.121094 534.855469 324.925781 C 535.648438 326.730469 536.042969 328.96875 536.042969 331.652344 L 536.042969 353.351562 Z M 528.523438 353.351562 "/>
<path style=" stroke:none;fill-rule:nonzero;fill:rgb(100%,100%,100%);fill-opacity:1;" d="M 563.703125 353.351562 L 563.703125 334.027344 C 563.703125 328.792969 561.613281 326.179688 557.4375 326.179688 C 552.863281 326.179688 550.578125 328.75 550.578125 333.894531 L 550.578125 353.351562 L 542.863281 353.351562 L 542.863281 319.648438 L 550.578125 319.648438 L 550.578125 322.8125 C 552.777344 320.175781 555.746094 318.855469 559.484375 318.855469 C 563 318.855469 565.871094 319.957031 568.089844 322.15625 C 570.308594 324.355469 571.421875 327.847656 571.421875 332.640625 L 571.421875 353.351562 Z M 563.703125 353.351562 "/>
<path style=" stroke:none;fill-rule:nonzero;fill:rgb(100%,100%,100%);fill-opacity:1;" d="M 578.265625 319.648438 L 585.984375 319.648438 L 585.984375 353.351562 L 578.265625 353.351562 Z M 585.390625 313.679688 C 584.507812 314.582031 583.433594 315.03125 582.15625 315.03125 C 580.882812 315.03125 579.792969 314.582031 578.890625 313.679688 C 577.988281 312.777344 577.539062 311.691406 577.539062 310.414062 C 577.539062 309.140625 577.988281 308.0625 578.890625 307.183594 C 579.792969 306.304688 580.882812 305.863281 582.15625 305.863281 C 583.433594 305.863281 584.507812 306.304688 585.390625 307.183594 C 586.265625 308.0625 586.707031 309.140625 586.707031 310.414062 C 586.707031 311.691406 586.265625 312.777344 585.390625 313.679688 "/>
<path style=" stroke:none;fill-rule:nonzero;fill:rgb(100%,100%,100%);fill-opacity:1;" d="M 590.96875 353.351562 L 590.96875 347.152344 L 608.644531 326.507812 L 592.285156 326.507812 L 592.285156 319.648438 L 618.207031 319.648438 L 618.207031 325.585938 L 600.597656 346.492188 L 618.140625 346.492188 L 618.140625 353.351562 Z M 590.96875 353.351562 "/>
<path style=" stroke:none;fill-rule:nonzero;fill:rgb(100%,100%,100%);fill-opacity:1;" d="M 635.921875 347.347656 C 638.867188 347.347656 641.371094 346.273438 643.4375 344.117188 L 643.4375 339.765625 C 641.503906 338.839844 639.261719 338.378906 636.710938 338.378906 C 634.644531 338.378906 632.976562 338.753906 631.699219 339.5 C 630.421875 340.25 629.785156 341.390625 629.785156 342.929688 C 629.785156 344.292969 630.316406 345.371094 631.371094 346.160156 C 632.425781 346.953125 633.941406 347.347656 635.921875 347.347656 M 643.4375 353.351562 L 643.4375 350.648438 C 641.195312 352.976562 638.207031 354.140625 634.46875 354.140625 C 630.863281 354.140625 627.929688 353.164062 625.664062 351.207031 C 623.402344 349.25 622.269531 346.492188 622.269531 342.929688 C 622.269531 339.28125 623.554688 336.511719 626.125 334.621094 C 628.699219 332.730469 631.808594 331.785156 635.460938 331.785156 C 638.667969 331.785156 641.328125 332.378906 643.4375 333.566406 L 643.4375 331.785156 C 643.4375 329.628906 642.898438 328.070312 641.824219 327.101562 C 640.746094 326.136719 639.085938 325.652344 636.84375 325.652344 C 633.195312 325.652344 629.851562 326.707031 626.820312 328.816406 L 624.445312 322.550781 C 628.09375 320.089844 632.492188 318.855469 637.636719 318.855469 C 639.394531 318.855469 640.941406 319 642.285156 319.285156 C 643.625 319.574219 645.011719 320.132812 646.441406 320.96875 C 647.867188 321.804688 648.980469 323.121094 649.769531 324.925781 C 650.5625 326.730469 650.957031 328.96875 650.957031 331.652344 L 650.957031 353.351562 Z M 643.4375 353.351562 "/>
<path style=" stroke:none;fill-rule:nonzero;fill:rgb(100%,100%,100%);fill-opacity:1;" d="M 667.542969 354.140625 C 662.3125 354.140625 659.695312 351.261719 659.695312 345.503906 L 659.695312 326.375 L 654.683594 326.375 L 654.683594 319.648438 L 659.695312 319.648438 L 659.695312 309.425781 L 667.414062 305.734375 L 667.414062 319.648438 L 675.195312 319.648438 L 675.195312 326.375 L 667.414062 326.375 L 667.414062 343.984375 C 667.414062 346.140625 668.359375 347.21875 670.25 347.21875 C 671.964844 347.21875 673.722656 346.710938 675.523438 345.699219 L 674.601562 352.625 C 672.667969 353.636719 670.316406 354.140625 667.542969 354.140625 "/>
<path style=" stroke:none;fill-rule:nonzero;fill:rgb(100%,100%,100%);fill-opacity:1;" d="M 680.167969 319.648438 L 687.886719 319.648438 L 687.886719 353.351562 L 680.167969 353.351562 Z M 687.289062 313.679688 C 686.410156 314.582031 685.332031 315.03125 684.058594 315.03125 C 682.785156 315.03125 681.695312 314.582031 680.792969 313.679688 C 679.890625 312.777344 679.441406 311.691406 679.441406 310.414062 C 679.441406 309.140625 679.890625 308.0625 680.792969 307.183594 C 681.695312 306.304688 682.785156 305.863281 684.058594 305.863281 C 685.332031 305.863281 686.410156 306.304688 687.289062 307.183594 C 688.167969 308.0625 688.609375 309.140625 688.609375 310.414062 C 688.609375 311.691406 688.167969 312.777344 687.289062 313.679688 "/>
<path style=" stroke:none;fill-rule:nonzero;fill:rgb(100%,100%,100%);fill-opacity:1;" d="M 708.878906 346.753906 C 711.292969 346.753906 713.199219 345.855469 714.582031 344.050781 C 715.96875 342.25 716.660156 339.742188 716.660156 336.53125 C 716.660156 333.324219 715.96875 330.792969 714.582031 328.949219 C 713.199219 327.101562 711.292969 326.179688 708.878906 326.179688 C 706.546875 326.179688 704.679688 327.113281 703.273438 328.980469 C 701.863281 330.851562 701.160156 333.367188 701.160156 336.53125 C 701.160156 339.699219 701.855469 342.195312 703.238281 344.019531 C 704.625 345.84375 706.503906 346.753906 708.878906 346.753906 M 708.878906 354.140625 C 704.128906 354.140625 700.371094 352.582031 697.597656 349.460938 C 694.828125 346.339844 693.445312 342.03125 693.445312 336.53125 C 693.445312 331.039062 694.828125 326.714844 697.597656 323.574219 C 700.371094 320.429688 704.128906 318.855469 708.878906 318.855469 C 713.625 318.855469 717.394531 320.429688 720.1875 323.574219 C 722.980469 326.714844 724.375 331.039062 724.375 336.53125 C 724.375 342.03125 722.992188 346.339844 720.222656 349.460938 C 717.453125 352.582031 713.667969 354.140625 708.878906 354.140625 "/>
<path style=" stroke:none;fill-rule:nonzero;fill:rgb(100%,100%,100%);fill-opacity:1;" d="M 750.835938 353.351562 L 750.835938 334.027344 C 750.835938 328.792969 748.746094 326.179688 744.570312 326.179688 C 739.996094 326.179688 737.710938 328.75 737.710938 333.894531 L 737.710938 353.351562 L 729.996094 353.351562 L 729.996094 319.648438 L 737.710938 319.648438 L 737.710938 322.8125 C 739.910156 320.175781 742.875 318.855469 746.613281 318.855469 C 750.132812 318.855469 753 319.957031 755.222656 322.15625 C 757.441406 324.355469 758.550781 327.847656 758.550781 332.640625 L 758.550781 353.351562 Z M 750.835938 353.351562 "/>
<path style=" stroke:none;fill-rule:nonzero;fill:rgb(100%,100%,100%);fill-opacity:1;" d="M 121.648438 213.613281 C 120.390625 215.792969 119.910156 216.753906 119.910156 216.753906 C 118.949219 218.667969 116.527344 219.609375 114.527344 218.847656 L 110.882812 217.460938 C 108.882812 216.699219 106.625 217.710938 105.863281 219.710938 L 103.101562 226.976562 C 102.339844 228.976562 103.351562 231.234375 105.351562 231.996094 L 108.992188 233.378906 C 110.992188 234.140625 112.214844 236.464844 111.707031 238.542969 L 110.109375 246.480469 C 109.777344 248.597656 107.757812 250.265625 105.621094 250.195312 L 101.71875 250.066406 C 99.578125 249.992188 97.773438 251.683594 97.703125 253.824219 L 97.441406 261.589844 C 97.371094 263.730469 99.0625 265.535156 101.199219 265.609375 L 105.125 265.738281 C 107.265625 265.808594 109.175781 267.609375 109.371094 269.742188 L 110.445312 277.753906 C 110.820312 279.859375 109.453125 282.09375 107.40625 282.722656 L 103.625 283.878906 C 101.578125 284.503906 100.417969 286.691406 101.042969 288.734375 L 104.449219 299.902344 L 125.429688 293.414062 C 115.8125 269.933594 116.785156 242.40625 130.457031 218.730469 C 144.128906 195.054688 167.484375 180.457031 192.628906 177.046875 L 187.761719 155.632812 L 176.386719 158.261719 C 174.300781 158.742188 172.988281 160.84375 173.46875 162.925781 L 174.355469 166.78125 C 174.835938 168.867188 173.585938 171.167969 171.574219 171.898438 L 164.097656 174.972656 C 162.152344 175.867188 159.636719 175.113281 158.507812 173.296875 L 156.433594 169.960938 C 155.300781 168.144531 152.890625 167.585938 151.074219 168.714844 L 144.476562 172.820312 C 142.65625 173.953125 142.097656 176.363281 143.230469 178.179688 L 145.292969 181.492188 C 146.421875 183.308594 145.984375 185.894531 144.320312 187.238281 L 138.242188 192.589844 C 136.695312 194.066406 134.070312 194.171875 132.414062 192.820312 L 129.394531 190.359375 C 127.734375 189.007812 125.273438 189.257812 123.921875 190.917969 L 119.011719 196.941406 C 117.660156 198.601562 117.910156 201.066406 119.570312 202.414062 L 122.59375 204.878906 C 124.253906 206.230469 124.648438 208.796875 123.472656 210.585938 C 123.472656 210.585938 122.90625 211.4375 121.648438 213.613281 "/>
<path style=" stroke:none;fill-rule:nonzero;fill:rgb(100%,100%,100%);fill-opacity:1;" d="M 202.621094 353.980469 C 205.136719 353.980469 206.210938 353.914062 206.210938 353.914062 C 208.347656 353.789062 210.375 355.414062 210.710938 357.527344 L 211.335938 361.378906 C 211.675781 363.488281 213.679688 364.941406 215.796875 364.597656 L 223.464844 363.359375 C 225.578125 363.019531 227.027344 361.015625 226.6875 358.898438 L 226.066406 355.054688 C 225.726562 352.945312 227.125 350.722656 229.183594 350.125 L 236.855469 347.539062 C 238.851562 346.769531 241.308594 347.679688 242.316406 349.566406 L 244.152344 353.011719 C 245.160156 354.898438 247.53125 355.621094 249.417969 354.613281 L 256.273438 350.953125 C 258.160156 349.945312 258.882812 347.578125 257.875 345.691406 L 256.023438 342.226562 C 255.015625 340.335938 255.621094 337.78125 257.367188 336.546875 L 263.769531 331.609375 C 265.40625 330.230469 268.027344 330.300781 269.59375 331.757812 L 272.484375 334.453125 C 274.050781 335.910156 276.523438 335.824219 277.984375 334.261719 L 285.949219 325.726562 L 269.839844 310.800781 C 254.3125 330.871094 229.988281 343.792969 202.652344 343.789062 C 175.308594 343.789062 150.988281 330.863281 135.460938 310.792969 L 119.351562 325.714844 L 127.316406 334.25 C 128.777344 335.816406 131.25 335.902344 132.816406 334.445312 L 135.707031 331.746094 C 137.273438 330.289062 139.894531 330.222656 141.53125 331.601562 L 147.933594 336.539062 C 149.679688 337.773438 150.285156 340.328125 149.277344 342.214844 L 147.425781 345.683594 C 146.417969 347.570312 147.136719 349.9375 149.023438 350.945312 L 155.882812 354.605469 C 157.765625 355.613281 160.136719 354.894531 161.144531 353.007812 L 162.984375 349.5625 C 163.988281 347.675781 166.449219 346.761719 168.441406 347.535156 L 176.117188 350.121094 C 178.171875 350.722656 179.570312 352.941406 179.230469 355.050781 L 178.609375 358.898438 C 178.269531 361.011719 179.71875 363.015625 181.828125 363.355469 L 189.503906 364.597656 C 191.613281 364.9375 193.621094 363.488281 193.960938 361.375 L 194.585938 357.527344 C 194.925781 355.414062 196.953125 353.789062 199.085938 353.914062 C 199.085938 353.914062 200.109375 353.980469 202.621094 353.980469 "/>
<path style=" stroke:none;fill-rule:nonzero;fill:rgb(100%,100%,100%);fill-opacity:1;" d="M 283.695312 213.671875 C 282.4375 211.492188 281.847656 210.59375 281.847656 210.59375 C 280.667969 208.808594 281.066406 206.238281 282.722656 204.890625 L 285.746094 202.425781 C 287.40625 201.074219 287.65625 198.613281 286.308594 196.953125 L 281.398438 190.929688 C 280.046875 189.269531 277.585938 189.019531 275.925781 190.371094 L 272.90625 192.828125 C 271.246094 194.179688 268.625 194.078125 267.078125 192.597656 L 261 187.246094 C 259.335938 185.902344 258.898438 183.316406 260.027344 181.5 L 262.09375 178.1875 C 263.222656 176.371094 262.664062 173.960938 260.847656 172.828125 L 254.25 168.722656 C 252.433594 167.589844 250.023438 168.148438 248.890625 169.96875 L 246.816406 173.300781 C 245.683594 175.117188 243.171875 175.871094 241.226562 174.976562 L 233.75 171.902344 C 231.738281 171.171875 230.488281 168.867188 230.96875 166.785156 L 231.855469 162.929688 C 232.335938 160.84375 231.023438 158.746094 228.9375 158.265625 L 217.5625 155.632812 L 212.691406 177.046875 C 237.839844 180.460938 261.191406 195.0625 274.859375 218.742188 C 288.527344 242.417969 289.492188 269.945312 279.875 293.425781 L 300.855469 299.914062 L 304.261719 288.75 C 304.890625 286.703125 303.726562 284.519531 301.683594 283.890625 L 297.898438 282.734375 C 295.855469 282.105469 294.488281 279.871094 294.859375 277.765625 L 295.9375 269.753906 C 296.132812 267.625 298.042969 265.824219 300.183594 265.753906 L 304.109375 265.621094 C 306.246094 265.550781 307.9375 263.742188 307.867188 261.605469 L 307.609375 253.835938 C 307.539062 251.699219 305.730469 250.007812 303.59375 250.078125 L 299.691406 250.207031 C 297.554688 250.277344 295.535156 248.605469 295.203125 246.496094 L 293.605469 238.554688 C 293.097656 236.476562 294.320312 234.152344 296.320312 233.390625 L 299.960938 232.007812 C 301.960938 231.246094 302.976562 228.988281 302.214844 226.988281 L 299.453125 219.722656 C 298.691406 217.726562 296.433594 216.710938 294.433594 217.472656 L 290.785156 218.859375 C 288.789062 219.621094 286.367188 218.675781 285.40625 216.765625 C 285.40625 216.765625 284.953125 215.847656 283.695312 213.671875 "/>
<path style=" stroke:none;fill-rule:nonzero;fill:rgb(100%,100%,100%);fill-opacity:1;" d="M 81.097656 211.835938 C 81.042969 211.945312 81.011719 212.007812 81.011719 212.007812 C 81.011719 212.007812 81.042969 211.949219 81.097656 211.835938 "/>
<path style=" stroke:none;fill-rule:nonzero;fill:rgb(100%,100%,100%);fill-opacity:1;" d="M 114.539062 167.777344 L 114.835938 168.136719 C 115.753906 167.5 118.890625 165.238281 122.734375 164.160156 C 143.890625 158.214844 142.835938 150.898438 151.78125 146.554688 L 151.507812 146.113281 C 150.617188 146.671875 147.867188 148.273438 144.054688 148.320312 C 119.230469 148.632812 121.113281 163.113281 114.539062 167.777344 "/>
<path style=" stroke:none;fill-rule:nonzero;fill:rgb(100%,100%,100%);fill-opacity:1;" d="M 89.871094 195.328125 L 90.324219 195.621094 C 95.359375 190.035156 100.203125 188.992188 101.019531 188.75 C 120.71875 182.921875 127.589844 169.894531 132.917969 166.183594 L 132.71875 165.890625 C 125.445312 171.050781 116.785156 165.820312 102.042969 181.570312 C 101.953125 181.664062 101.542969 181.101562 101.542969 181.101562 C 113.496094 166.660156 113.800781 156.855469 119.335938 151.488281 L 119.042969 151.21875 C 84.160156 172.015625 99.46875 183.402344 89.871094 195.328125 "/>
<path style=" stroke:none;fill-rule:nonzero;fill:rgb(100%,100%,100%);fill-opacity:1;" d="M 91.316406 171.195312 C 58.4375 203.777344 78.902344 212.105469 73.75 228.320312 L 74.078125 228.460938 C 77.039062 221.589844 84.667969 218.578125 84.863281 218.488281 C 98.789062 212.0625 103.164062 195.847656 108.738281 190.90625 L 108.457031 190.644531 C 101.65625 198.035156 90.417969 193.886719 81.316406 212.164062 C 81.285156 212.226562 80.695312 211.875 80.703125 211.855469 C 88.085938 195.929688 84.632812 181.523438 91.652344 171.609375 C 91.535156 171.433594 91.410156 171.285156 91.316406 171.195312 "/>
<path style=" stroke:none;fill-rule:nonzero;fill:rgb(100%,100%,100%);fill-opacity:1;" d="M 67.429688 271.574219 L 67.917969 271.597656 C 67.796875 269.746094 67.296875 261.96875 75.050781 254.796875 C 90.667969 240.347656 88.011719 227.484375 94.414062 217.558594 L 93.929688 217.289062 C 88.953125 225.769531 70.773438 235.03125 70.007812 248.0625 C 70.007812 248.078125 69.316406 248.003906 69.320312 247.957031 C 71.972656 229.285156 62.109375 216.847656 67.492188 205.019531 C 67.3125 204.898438 67.136719 204.800781 67.015625 204.75 C 46.160156 247.636719 63.484375 247.039062 67.429688 271.574219 "/>
<path style=" stroke:none;fill-rule:nonzero;fill:rgb(100%,100%,100%);fill-opacity:1;" d="M 75.472656 312.335938 L 75.984375 312.15625 C 71.671875 302.460938 78.882812 289.222656 79.210938 288.585938 C 88.699219 270.195312 85.523438 253.554688 87.6875 247.746094 L 87.238281 247.621094 C 82.179688 260.246094 68.113281 267.105469 70.300781 288.328125 C 70.308594 288.363281 69.625 288.367188 69.617188 288.324219 C 67.398438 275.167969 52.476562 262.53125 52.957031 248.160156 C 52.871094 248.152344 52.785156 248.144531 52.703125 248.144531 C 43.414062 299.179688 69.914062 298.835938 75.472656 312.335938 "/>
<path style=" stroke:none;fill-rule:nonzero;fill:rgb(100%,100%,100%);fill-opacity:1;" d="M 96.703125 350.121094 L 97.058594 349.839844 C 88.210938 339.085938 90.898438 327.375 91.046875 326.523438 C 95.453125 301.066406 87.214844 296.484375 87.023438 284.957031 L 86.597656 284.957031 C 86.222656 297.84375 73.027344 312.34375 85.007812 330.371094 L 84.425781 330.738281 C 71.230469 311.476562 60.757812 316.183594 54.585938 297.023438 L 54.578125 297.023438 C 54.386719 297.023438 54.148438 297.113281 54.027344 297.179688 C 63.3125 353.292969 88.269531 336.3125 96.703125 350.121094 "/>
<path style=" stroke:none;fill-rule:nonzero;fill:rgb(100%,100%,100%);fill-opacity:1;" d="M 148.21875 374.597656 L 148.105469 374.078125 C 130.722656 377.566406 121.839844 374.226562 118.683594 358.238281 C 114.253906 335.796875 98.988281 327.136719 97.203125 318.167969 L 97.171875 318.167969 C 96.917969 318.167969 96.789062 318.207031 96.742188 318.234375 C 96.742188 318.234375 96.742188 318.242188 96.742188 318.242188 C 100.019531 334.082031 92.300781 343.515625 111.417969 362.488281 L 110.894531 362.9375 C 92.5 348.347656 79.863281 353.722656 72.554688 343.585938 C 72.40625 343.707031 72.285156 343.832031 72.242188 343.910156 C 95.042969 381.765625 119.484375 383.824219 148.21875 374.597656 "/>
<path style=" stroke:none;fill-rule:nonzero;fill:rgb(100%,100%,100%);fill-opacity:1;" d="M 105.257812 381.109375 L 105.398438 380.914062 C 128.789062 394.554688 153.238281 375.539062 182.855469 374.859375 C 190.285156 374.6875 212.503906 376.03125 232.898438 399.738281 L 227.484375 401.285156 C 220.742188 389.578125 210.347656 381.117188 200.921875 378.761719 C 173.976562 372.027344 173.453125 397.148438 143.527344 397.539062 C 121.320312 397.828125 106.128906 381.996094 105.257812 381.109375 "/>
<path style=" stroke:none;fill-rule:nonzero;fill:rgb(100%,100%,100%);fill-opacity:1;" d="M 323.894531 211.835938 C 323.949219 211.945312 323.980469 212.007812 323.980469 212.007812 C 323.980469 212.007812 323.949219 211.949219 323.894531 211.835938 "/>
<path style=" stroke:none;fill-rule:nonzero;fill:rgb(100%,100%,100%);fill-opacity:1;" d="M 323.894531 211.835938 C 323.949219 211.945312 323.980469 212.007812 323.980469 212.007812 C 323.980469 212.007812 323.949219 211.949219 323.894531 211.835938 "/>
<path style=" stroke:none;fill-rule:nonzero;fill:rgb(100%,100%,100%);fill-opacity:1;" d="M 81.097656 211.835938 C 81.042969 211.945312 81.011719 212.007812 81.011719 212.007812 C 81.011719 212.007812 81.042969 211.949219 81.097656 211.835938 "/>
<path style=" stroke:none;fill-rule:nonzero;fill:rgb(100%,100%,100%);fill-opacity:1;" d="M 323.894531 211.835938 C 323.949219 211.945312 323.980469 212.007812 323.980469 212.007812 C 323.980469 212.007812 323.949219 211.949219 323.894531 211.835938 "/>
<path style=" stroke:none;fill-rule:nonzero;fill:rgb(100%,100%,100%);fill-opacity:1;" d="M 290.453125 167.777344 L 290.15625 168.136719 C 289.238281 167.5 286.101562 165.238281 282.257812 164.160156 C 261.097656 158.214844 262.15625 150.898438 253.210938 146.554688 L 253.484375 146.113281 C 254.375 146.671875 257.125 148.273438 260.9375 148.320312 C 285.761719 148.632812 283.878906 163.113281 290.453125 167.777344 "/>
<path style=" stroke:none;fill-rule:nonzero;fill:rgb(100%,100%,100%);fill-opacity:1;" d="M 315.121094 195.328125 L 314.667969 195.621094 C 309.632812 190.035156 304.789062 188.992188 303.972656 188.75 C 284.277344 182.921875 277.402344 169.894531 272.078125 166.183594 L 272.273438 165.890625 C 279.546875 171.050781 288.207031 165.820312 302.949219 181.570312 C 303.039062 181.664062 303.449219 181.101562 303.449219 181.101562 C 291.492188 166.660156 291.191406 156.855469 285.65625 151.488281 L 285.949219 151.21875 C 320.832031 172.015625 305.523438 183.402344 315.121094 195.328125 "/>
<path style=" stroke:none;fill-rule:nonzero;fill:rgb(100%,100%,100%);fill-opacity:1;" d="M 313.675781 171.195312 C 346.554688 203.777344 326.089844 212.105469 331.238281 228.320312 L 330.914062 228.460938 C 327.953125 221.589844 320.324219 218.578125 320.128906 218.488281 C 306.199219 212.0625 301.828125 195.847656 296.253906 190.90625 L 296.535156 190.644531 C 303.335938 198.035156 314.570312 193.886719 323.675781 212.164062 C 323.707031 212.226562 324.296875 211.875 324.289062 211.855469 C 316.90625 195.929688 320.359375 181.523438 313.339844 171.609375 C 313.457031 171.433594 313.578125 171.285156 313.675781 171.195312 "/>
<path style=" stroke:none;fill-rule:nonzero;fill:rgb(100%,100%,100%);fill-opacity:1;" d="M 337.558594 271.574219 L 337.074219 271.597656 C 337.195312 269.746094 337.695312 261.96875 329.941406 254.796875 C 314.324219 240.347656 316.980469 227.484375 310.582031 217.558594 L 311.0625 217.289062 C 316.039062 225.769531 334.21875 235.03125 334.980469 248.0625 C 334.980469 248.078125 335.675781 248.003906 335.671875 247.957031 C 333.015625 229.285156 342.878906 216.847656 337.5 205.019531 C 337.675781 204.898438 337.855469 204.800781 337.976562 204.75 C 358.832031 247.636719 341.507812 247.039062 337.558594 271.574219 "/>
<path style=" stroke:none;fill-rule:nonzero;fill:rgb(100%,100%,100%);fill-opacity:1;" d="M 329.519531 312.335938 L 329.003906 312.15625 C 333.320312 302.460938 326.109375 289.222656 325.78125 288.585938 C 316.292969 270.195312 319.46875 253.554688 317.304688 247.746094 L 317.753906 247.621094 C 322.8125 260.246094 336.875 267.105469 334.6875 288.328125 C 334.6875 288.363281 335.367188 288.367188 335.375 288.324219 C 337.59375 275.167969 352.515625 262.53125 352.035156 248.160156 C 352.121094 248.152344 352.207031 248.144531 352.285156 248.144531 C 361.578125 299.179688 335.074219 298.835938 329.519531 312.335938 "/>
<path style=" stroke:none;fill-rule:nonzero;fill:rgb(100%,100%,100%);fill-opacity:1;" d="M 308.285156 350.121094 L 307.933594 349.839844 C 316.78125 339.085938 314.09375 327.375 313.945312 326.523438 C 309.539062 301.066406 317.777344 296.484375 317.964844 284.957031 L 318.394531 284.957031 C 318.765625 297.84375 331.964844 312.34375 319.984375 330.371094 L 320.5625 330.738281 C 333.761719 311.476562 344.234375 316.183594 350.40625 297.023438 L 350.414062 297.023438 C 350.605469 297.023438 350.84375 297.113281 350.964844 297.179688 C 341.679688 353.292969 316.722656 336.3125 308.285156 350.121094 "/>
<path style=" stroke:none;fill-rule:nonzero;fill:rgb(100%,100%,100%);fill-opacity:1;" d="M 256.773438 374.597656 L 256.886719 374.078125 C 274.269531 377.566406 283.152344 374.226562 286.308594 358.238281 C 290.738281 335.796875 306.003906 327.136719 307.789062 318.167969 L 307.820312 318.167969 C 308.078125 318.167969 308.207031 318.207031 308.25 318.234375 C 308.25 318.234375 308.25 318.242188 308.25 318.242188 C 304.972656 334.082031 312.691406 343.515625 293.574219 362.488281 L 294.09375 362.9375 C 312.492188 348.347656 325.128906 353.722656 332.4375 343.585938 C 332.582031 343.707031 332.707031 343.832031 332.746094 343.910156 C 309.949219 381.765625 285.507812 383.824219 256.773438 374.597656 "/>
<path style=" stroke:none;fill-rule:nonzero;fill:rgb(100%,100%,100%);fill-opacity:1;" d="M 299.734375 381.109375 L 299.589844 380.914062 C 276.203125 394.554688 251.753906 375.539062 222.136719 374.859375 C 214.707031 374.6875 192.488281 376.03125 172.09375 399.738281 L 177.507812 401.285156 C 184.25 389.578125 194.644531 381.117188 204.070312 378.761719 C 231.015625 372.027344 231.539062 397.148438 261.464844 397.539062 C 283.671875 397.828125 298.863281 381.996094 299.734375 381.109375 "/>
<path style=" stroke:none;fill-rule:nonzero;fill:rgb(100%,100%,100%);fill-opacity:1;" d="M 81.097656 211.835938 C 81.042969 211.945312 81.011719 212.007812 81.011719 212.007812 C 81.011719 212.007812 81.042969 211.949219 81.097656 211.835938 "/>
<path style=" stroke:none;fill-rule:nonzero;fill:rgb(100%,100%,100%);fill-opacity:1;" d="M 81.097656 211.835938 C 81.042969 211.945312 81.011719 212.007812 81.011719 212.007812 C 81.011719 212.007812 81.042969 211.949219 81.097656 211.835938 "/>
<path style=" stroke:none;fill-rule:nonzero;fill:rgb(100%,100%,100%);fill-opacity:1;" d="M 323.894531 211.835938 C 323.949219 211.945312 323.980469 212.007812 323.980469 212.007812 C 323.980469 212.007812 323.949219 211.949219 323.894531 211.835938 "/>
<path style=" stroke:none;fill-rule:nonzero;fill:rgb(100%,100%,100%);fill-opacity:1;" d="M 255.714844 252.980469 C 255.695312 260 255.527344 266.042969 255.527344 266.042969 C 255.085938 271.773438 255 277.535156 252.335938 281.449219 C 249.320312 285.898438 244.503906 288.222656 239.671875 288.222656 L 239.480469 288.289062 L 238.863281 288.289062 L 238.683594 288.222656 C 233.84375 288.222656 229.027344 285.898438 226.007812 281.449219 C 223.351562 277.535156 223.253906 271.773438 222.8125 266.042969 C 222.8125 266.042969 222.644531 260.066406 222.628906 253.105469 L 222.628906 252.789062 C 222.644531 245.769531 222.8125 239.722656 222.8125 239.722656 C 223.253906 233.992188 223.34375 228.238281 226.007812 224.316406 C 229.019531 219.867188 233.839844 217.546875 238.675781 217.546875 L 238.859375 217.484375 L 239.472656 217.484375 L 239.65625 217.546875 C 244.496094 217.546875 249.320312 219.867188 252.332031 224.316406 C 254.996094 228.238281 255.085938 233.992188 255.527344 239.722656 C 255.527344 239.722656 255.695312 245.703125 255.714844 252.660156 Z M 238.898438 212.5625 L 238.488281 212.5625 C 227.558594 212.5625 217.039062 219.601562 211.816406 231.316406 C 209.164062 237.277344 208.550781 245.042969 208.546875 252.507812 C 208.550781 259.96875 209.164062 267.726562 211.816406 273.6875 C 217.039062 285.414062 227.558594 293.425781 238.488281 293.425781 L 238.898438 293.425781 C 249.824219 293.425781 260.339844 285.414062 265.558594 273.6875 C 268.214844 267.726562 268.828125 259.96875 268.839844 252.507812 C 268.828125 245.042969 268.214844 237.277344 265.558594 231.316406 C 260.339844 219.601562 249.824219 212.5625 238.898438 212.5625 "/>
<path style=" stroke:none;fill-rule:nonzero;fill:rgb(100%,100%,100%);fill-opacity:1;" d="M 247.085938 296.773438 C 247.085938 296.773438 244.941406 302.339844 240.960938 305.757812 C 238.773438 307.640625 235.535156 308.132812 232.957031 308.429688 L 206.054688 309.765625 L 200.117188 309.765625 C 200.117188 309.765625 195.605469 309.507812 195.363281 305.320312 L 195.363281 211.074219 C 195.605469 206.882812 200.117188 206.628906 200.117188 206.628906 L 206.054688 206.628906 L 206.054688 201.136719 L 170.085938 201.136719 L 170.085938 206.628906 L 176.03125 206.628906 C 176.03125 206.628906 180.535156 206.882812 180.78125 211.074219 L 180.78125 305.320312 C 180.535156 309.507812 176.03125 309.765625 176.03125 309.765625 L 170.085938 309.765625 L 170.085938 315.257812 L 206.054688 315.257812 L 245.007812 315.40625 L 249.792969 298.023438 L 249.792969 297.398438 Z M 247.085938 296.773438 "/>
<path style=" stroke:none;fill-rule:nonzero;fill:rgb(100%,100%,100%);fill-opacity:1;" d="M 162.570312 222.921875 C 162.773438 219.425781 166.539062 219.214844 166.539062 219.214844 L 171.492188 219.214844 L 171.492188 214.632812 L 141.480469 214.632812 L 141.480469 219.214844 L 146.441406 219.214844 C 146.441406 219.214844 150.199219 219.425781 150.40625 222.921875 L 150.40625 283.179688 C 150.199219 286.675781 146.441406 286.890625 146.441406 286.890625 L 141.480469 286.890625 L 141.480469 291.476562 L 171.492188 291.476562 L 171.492188 286.890625 L 166.539062 286.890625 C 166.539062 286.890625 162.773438 286.675781 162.570312 283.179688 Z M 162.570312 222.921875 "/>
</g>
</svg>
